<?xml version="1.0" encoding="UTF-8"?>
<svg viewBox="0 0 512 512" xmlns="http://www.w3.org/2000/svg" aria-label="SafeShare Logo">
  <defs>
    <linearGradient id="g" x1="0" y1="0" x2="1" y2="1">
      <stop offset="0" stop-color="#0b6ef7"/>
      <stop offset="1" stop-color="#2bb3ff"/>
    </linearGradient>
  </defs>
  <path d="M256 32l160 64v128c0 112-77 208-160 256-83-48-160-144-160-256V96z" fill="url(#g)"/>
  <path d="M145 214c0-22 18-40 40-40h82c10 0 18 8 18 18s-8 18-18 18h-69c-7 0-13 6-13 13s6 13 13 13h116c19 0 35 16 35 35s-16 35-35 35H212l-29 31c-8 8-21 8-29 0-8-8-8-21 0-29l16-17h-5c-11 0-20-9-20-20 0-10 8-19 18-20-11-6-18-17-18-29z" fill="white" opacity=".95"/>
</svg>