<svg xmlns="http://www.w3.org/2000/svg" viewBox="0 0 192 192" width="192" height="192" style="color:#10A880">
  <g fill="currentColor">
    <path d="M 17 149 L 17 160 L 18 167 L 23 173 L 26 175 L 34 176 L 47 176 L 47 175 L 37 175 L 27 174 L 24 172 L 20 168 L 18 163 L 18 149 Z"/>
    <path d="M 130 12 L 159 12 L 168 13 L 173 17 L 175 21 L 176 27 L 176 45 L 175 45 L 175 28 L 174 22 L 172 19 L 168 15 L 162 13 L 130 13 Z"/>
    <path d="M 16 66 L 16 35 L 17 28 L 19 23 L 23 19 L 28 17 L 34 16 L 56 16 L 56 17 L 35 17 L 29 18 L 24 20 L 20 24 L 18 29 L 17 35 L 17 66 Z"/>
    <path d="M 13 77 L 14 77 L 14 109 L 13 109 Z"/>
    <path d="M 175 76 L 176 76 L 176 110 L 175 110 Z"/>
    <path d="M 176 129 L 176 153 L 175 160 L 173 165 L 169 169 L 164 171 L 158 172 L 143 172 L 143 171 L 158 171 L 163 170 L 168 168 L 172 164 L 174 159 L 175 153 L 175 129 Z"/>
    <path d="M 97 54 L 103 58 L 116 64 L 121 67 L 123 69 L 125 76 L 125 90 L 123 99 L 118 106 L 109 112 L 98 118 L 96 118 L 79 109 L 72 103 L 68 95 L 67 89 L 67 76 L 69 69 L 73 66 L 91 57 Z"/>
    <path d="M 117 98 L 123 98 L 131 100 L 136 104 L 141 109 L 142 112 L 151 112 L 157 113 L 162 116 L 168 121 L 170 125 L 170 130 L 167 135 L 163 140 L 157 145 L 151 149 L 144 151 L 132 152 L 124 150 L 116 146 L 104 142 L 92 139 L 82 135 L 71 129 L 58 121 L 50 116 L 44 111 L 41 107 L 40 103 L 42 97 L 47 91 L 52 88 L 60 86 L 69 86 L 76 87 L 84 90 L 93 94 L 101 97 L 110 98 Z"/>
  </g>
</svg>